<svg width="160" height="40" viewBox="0 0 160 40" fill="none" xmlns="http://www.w3.org/2000/svg">
<g clip-path="url(#clip0_8_71)">
<rect width="160" height="40" fill="white"/>
<path fill-rule="evenodd" clip-rule="evenodd" d="M92.8936 32.5083H88.4494V39.2693H93.0655V38.5257H89.2488V36.1102H92.6658V35.3666H89.2488V33.2519H92.8936V32.5083ZM82.8276 32.5084H81.1084L81.1127 39.2607H81.9121V36.2262H82.9437L84.7747 39.2607H85.7589L83.842 36.1489C84.3068 36.0953 84.7414 35.8916 85.0799 35.5686C85.2287 35.4072 85.3435 35.2174 85.4173 35.0107C85.4912 34.8039 85.5226 34.5843 85.5097 34.3651C85.5279 34.017 85.4458 33.6709 85.2733 33.368C85.1205 33.1309 84.9067 32.9393 84.6543 32.8135C84.3845 32.681 84.0936 32.5966 83.7947 32.5642C83.4738 32.5263 83.1508 32.5077 82.8276 32.5084ZM82.6256 35.4827H81.9078V33.2691H83.0339C83.2309 33.269 83.4276 33.2819 83.6228 33.3078C83.8053 33.328 83.9829 33.3804 84.1472 33.4625C84.2993 33.5411 84.4283 33.6582 84.5211 33.8021C84.6268 33.9765 84.6777 34.1786 84.6672 34.3823C84.6832 34.6143 84.6128 34.8439 84.4695 35.027C84.336 35.1781 84.1658 35.2922 83.9752 35.358C83.7628 35.4295 83.5415 35.4714 83.3176 35.4827H82.6256ZM100.519 33.2562H98.2836V39.2736H97.4756V33.2562H95.2449V32.5083H100.51L100.519 33.2562ZM105.861 32.5083H105.105L102.126 39.2607H103.033L103.729 37.6016H107.103L107.791 39.2607H108.728L105.861 32.5083ZM105.448 33.5356H105.47L106.802 36.858H104.047L105.448 33.5356ZM111.659 32.5083H112.459V39.2607H111.659V32.5083ZM116.722 32.5083H115.923L115.936 39.2693H119.826V38.5257H116.722V32.5083Z" fill="#1D1D1B"/>
<path d="M53.0757 17.8232H55.5084V24.1259H40.9207V21.5538H43.16V2.57211H40.9207V0H48.6573V2.57211H46.0999V21.5538H53.0757V17.8232ZM72.443 0L75.7698 3.54043V20.5898L72.443 24.1259H63.417L60.0816 20.5898V3.54043L63.4084 0H72.443ZM72.8256 4.46986L71.1923 2.76665H64.7021L63.0388 4.46986V19.6561L64.6677 21.3593H71.1622L72.8256 19.6561V4.46986ZM96.5555 16.5998H98.5799V14.0061H95.7775L92.382 2.55482H93.8519V0H85.3116V2.57211H86.7815L81.1424 21.5538H79.5521V24.1259H86.3345V21.5538H84.0952L85.0279 18.4241L87.0136 11.7236L89.5667 3.05627L92.829 14.0234H88.5524L87.7959 16.6171H93.607L95.064 21.5711H92.8247V24.1432H99.6243V21.5711H98.0211L96.5555 16.5998ZM116.486 0L119.813 3.54043V20.5898L116.486 24.1259H102.861V21.5538H105.1V2.57211H102.861V0H116.486ZM116.868 4.46986L115.239 2.76665H108.04V21.355H115.205L116.868 19.6518V4.46986ZM123.406 2.57211H125.645V21.5538H123.406V24.1259H138.63V17.8232H136.072V21.5538H128.589V13.3404H136.072V10.7683H128.589V2.55482H136.072V6.28978H138.63V0H123.406V2.57211ZM160 3.54043V20.5898L156.673 24.1259H143.035V21.5538H145.275V2.57211H143.035V0H156.665L160 3.54043ZM157.056 4.46986L155.422 2.76665H148.227V21.355H155.392L157.056 19.6518V4.46986Z" fill="#DEC19F"/>
<path fill-rule="evenodd" clip-rule="evenodd" d="M14.5403 0.0645447H24.0048V16.5392H18.1164V14.6524H21.8385V1.95572H16.698V6.18936H14.5403V1.95572V0.0645447ZM2.15766 1.95573H7.2982V14.6524H3.57604V16.5392H13.1308V14.6524H9.46446V1.95573H13.1308V0.0645569H0V6.18937H2.15766V1.95573ZM9.46446 22.1826V24.0738H0V7.5991H5.88842V9.48597H2.16625V22.1826H7.3068V17.9447H9.46446V22.1826ZM16.7068 22.1826H21.8473V17.9447H24.005V22.1826V24.0738H10.8699V22.1826H14.5405V9.48597H10.8699V7.5991H20.4289V9.48597H16.7068V22.1826Z" fill="#1D1D1B"/>
</g>
<defs>
<clipPath id="clip0_8_71">
<rect width="160" height="40" fill="white"/>
</clipPath>
</defs>
</svg>
