<svg width="64" height="64" viewBox="0 0 64 64" fill="none" xmlns="http://www.w3.org/2000/svg">
<g clip-path="url(#clip0_1_34)">
<path fill-rule="evenodd" clip-rule="evenodd" d="M5.75258 5.04209H19.4579V38.8928H9.53413V43.9234H35.0081V38.8928H25.2334V5.04209H35.0081V0H0V16.3295H5.75258V5.04209ZM25.2333 58.9695V64.0116H0V20.0881H15.6992V25.1188H5.77549V58.9695H19.4808V47.6706H25.2333V58.9695ZM44.5421 58.9695H58.2474V47.6706H64V58.9695V64.0116H28.9804V58.9695H38.7666V25.1188H28.9804V20.0881H54.4658V25.1188H44.5421V58.9695ZM38.7667 0H64V43.9234H48.3008V38.8928H58.2245V5.04209H44.5192V16.3295H38.7667V5.04209V0Z" fill="#DEC19F"/>
</g>
<defs>
<clipPath id="clip0_1_34">
<rect width="64" height="64" fill="white"/>
</clipPath>
</defs>
</svg>
